PathFileType	4	(X/Y/Z)	D:\TRACE\spotREDO_2-26-24\spot_justArm_Motion_3_1-platform.trc
DataRate	CameraRate	NumFrames	NumMarkers	Units	OrigDataRate	OrigDataStartFrame	OrigNumFrames
100.00	100.00	      30	5	mm	100.00	4376	      7000
Frame#	Time	Left_Front			Right_Front			Left_Aft			Right_Aft			Post			
		X1	Y1	Z1	X2	Y2	Z2	X3	Y3	Z3	X4	Y4	Z4	X5	Y5	Z5	

4376	43.750	-677.27032	-42.78833	-583.97479	737.21808	-28.50352	-499.99582	-749.09949	44.18697	631.84161	820.28668	51.14951	636.35468	31.88243	556.75134	-1030.55835	
4377	43.760	-677.31256	-42.06685	-583.87543	737.06995	-27.80738	-499.91391	-749.23047	43.71753	631.95874	820.34137	50.45732	636.67950	32.00330	558.02911	-1029.86597	
4378	43.770	-677.16718	-41.59185	-583.83380	737.13092	-27.43712	-499.71472	-749.26025	43.16804	632.14478	820.32837	50.03947	636.90167	32.34868	559.08691	-1029.10522	
4379	43.780	-677.56586	-40.79246	-583.77209	737.02240	-26.85302	-499.60083	-749.00513	42.30550	632.49030	820.18854	49.10946	637.07434	31.93007	560.25488	-1028.54846	
4380	43.790	-677.65656	-40.10699	-583.62122	737.06866	-26.11195	-499.48297	-749.17725	41.68281	632.70837	819.96472	48.49946	637.19305	31.82064	561.35980	-1027.52026	
4381	43.800	-677.65894	-39.44179	-583.34949	736.90314	-25.57872	-499.28726	-749.45605	41.09508	632.88544	819.83722	47.83203	637.38586	31.85958	562.56055	-1026.49487	
4382	43.810	-677.99042	-38.74815	-583.27448	736.62195	-24.99454	-499.07309	-749.88159	40.55065	633.16626	819.57654	46.93233	637.68359	31.48604	563.75189	-1025.54138	
4383	43.820	-678.26837	-37.99541	-583.20441	736.55225	-24.62251	-499.01233	-750.09814	39.48951	633.53619	819.51849	46.52170	637.95081	31.93556	565.17712	-1024.37268	
4384	43.830	-678.29034	-37.39532	-583.00659	736.35687	-23.88037	-498.87210	-749.99707	38.90562	633.71741	819.32068	45.75072	638.09308	31.34922	566.35797	-1023.49097	
4385	43.840	-678.45660	-36.65850	-582.88788	736.07190	-23.00799	-498.70151	-750.20355	38.03432	633.82703	818.99286	44.85243	638.30182	31.12647	567.85431	-1022.61664	
4386	43.850	-678.73096	-35.66191	-582.75598	735.96912	-22.37754	-498.51700	-750.49561	37.05370	633.96436	818.91345	44.08793	638.45441	30.64670	568.90741	-1021.96002	
4387	43.860	-678.66113	-35.03628	-582.45221	735.67810	-21.80916	-498.33426	-750.53113	36.46946	634.30304	818.59650	43.42545	638.80823	30.36380	570.34302	-1021.02277	
4388	43.870	-678.80212	-34.42529	-582.34161	735.40735	-21.26573	-498.08762	-750.68085	35.79399	634.48090	818.59448	42.56150	639.10870	30.31435	571.67804	-1020.41479	
4389	43.880	-679.17456	-33.50666	-582.20074	735.00446	-20.50844	-498.12451	-751.00018	34.87518	634.77454	818.43579	41.75168	639.34674	30.02497	572.95337	-1019.29535	
4390	43.890	-679.62891	-32.49588	-582.22552	734.85199	-19.56660	-497.79056	-750.99744	34.08571	635.03784	818.29779	40.99361	639.65826	30.08400	574.37189	-1018.32550	
4391	43.900	-679.84930	-31.96983	-582.04755	734.63489	-19.09794	-497.64273	-751.40527	33.47171	635.37091	817.80377	40.15954	639.86328	29.95633	575.77258	-1017.38055	
4392	43.910	-680.25543	-30.92449	-581.79645	734.50964	-18.25574	-497.71887	-751.60266	32.32376	635.75769	817.83740	39.21647	640.31549	29.44339	577.22455	-1016.57159	
4393	43.920	-680.55859	-30.06737	-581.66931	734.07855	-17.62376	-497.48663	-751.88257	31.67703	635.96716	817.31555	38.58620	640.47833	29.14462	578.56519	-1015.59674	
4394	43.930	-680.71564	-29.40668	-581.49420	733.96582	-16.96149	-497.15244	-752.36676	30.89086	636.14050	816.88837	37.77002	640.62689	28.63858	580.23462	-1014.49091	
4395	43.940	-681.08551	-28.33616	-581.30865	733.67719	-16.23038	-497.02151	-752.64783	30.38153	636.48279	816.92572	36.76898	641.00110	28.38646	581.52240	-1013.35693	
4396	43.950	-681.41602	-27.68051	-581.23193	733.38531	-15.05942	-496.81366	-752.73804	28.95879	636.60126	816.70795	35.82638	641.00592	28.25471	583.00647	-1012.08868	
4397	43.960	-681.76758	-26.80090	-580.97595	733.18091	-14.73677	-496.55508	-753.04907	28.16886	636.93408	816.09027	34.90064	641.36938	28.14257	584.80060	-1010.80884	
4398	43.970	-681.89758	-25.61422	-580.65790	732.77667	-13.84502	-496.26865	-753.60504	27.19742	637.08765	816.08234	33.90925	641.41571	27.56108	586.19403	-1009.89758	
4399	43.980	-682.14771	-24.96689	-580.53033	732.48236	-13.22669	-496.06326	-753.50531	26.35590	637.64874	815.66370	33.13826	641.94415	27.19873	587.64972	-1008.86084	
4400	43.990	-682.63104	-23.91223	-580.46259	731.98828	-12.42433	-496.01779	-754.07263	25.28752	637.79559	815.21039	32.07372	642.11035	26.89211	589.17853	-1007.58740	
4401	44.000	-682.93146	-23.05728	-580.26648	731.72809	-11.42843	-495.70810	-754.24725	24.45739	637.99646	814.80420	31.27761	642.60968	26.65338	590.82629	-1006.58008	
4402	44.010	-683.28735	-22.25398	-580.18652	731.19061	-10.55596	-495.72443	-754.65369	23.58420	638.30737	814.51050	30.36590	642.79950	26.30031	592.43884	-1005.33972	
4403	44.020	-683.72162	-21.23437	-579.74310	731.07825	-10.04617	-495.33157	-755.02966	22.59539	638.61560	813.89612	29.51697	643.14252	25.75036	593.90881	-1004.28003	
4404	44.030	-684.09351	-20.47282	-579.77466	730.77112	-9.21403	-495.13589	-755.29120	21.58466	639.00153	813.84393	28.47379	643.34644	25.72588	595.46204	-1003.27356	
4405	44.040	-684.57959	-19.30933	-579.43030	730.57611	-8.66354	-494.78625	-755.74896	20.91076	639.09253	813.19025	27.45829	643.70789	25.56424	596.94043	-1001.88324	
